<?xml version="1.0" encoding="UTF-8" standalone="no"?>
<!-- Created with Inkscape (http://www.inkscape.org/) -->

<svg
   xmlns:dc="http://purl.org/dc/elements/1.1/"
   xmlns:cc="http://creativecommons.org/ns#"
   xmlns:rdf="http://www.w3.org/1999/02/22-rdf-syntax-ns#"
   xmlns:svg="http://www.w3.org/2000/svg"
   xmlns="http://www.w3.org/2000/svg"
   xmlns:sodipodi="http://sodipodi.sourceforge.net/DTD/sodipodi-0.dtd"
   xmlns:inkscape="http://www.inkscape.org/namespaces/inkscape"
   width="210mm"
   height="297mm"
   viewBox="0 0 210 297"
   version="1.1"
   id="svg8"
   inkscape:version="0.92.4 (5da689c313, 2019-01-14)"
   sodipodi:docname="logo 2.svg"
   inkscape:export-filename="C:\Users\Thinkpad\Documents\Projetos\05.Torres\logo 2 dourado.png"
   inkscape:export-xdpi="96"
   inkscape:export-ydpi="96">
  <defs
     id="defs2" />
  <sodipodi:namedview
     id="base"
     pagecolor="#ffffff"
     bordercolor="#666666"
     borderopacity="1.0"
     inkscape:pageopacity="0.0"
     inkscape:pageshadow="2"
     inkscape:zoom="0.49497475"
     inkscape:cx="270.227"
     inkscape:cy="539.61977"
     inkscape:document-units="mm"
     inkscape:current-layer="layer1"
     showgrid="false"
     inkscape:window-width="1366"
     inkscape:window-height="705"
     inkscape:window-x="-8"
     inkscape:window-y="-8"
     inkscape:window-maximized="1" />
  <metadata
     id="metadata5">
    <rdf:RDF>
      <cc:Work
         rdf:about="">
        <dc:format>image/svg+xml</dc:format>
        <dc:type
           rdf:resource="http://purl.org/dc/dcmitype/StillImage" />
        <dc:title></dc:title>
      </cc:Work>
    </rdf:RDF>
  </metadata>
  <g
     inkscape:label="Camada 1"
     inkscape:groupmode="layer"
     id="layer1">
    <g
       id="g826"
       style="fill:#6c5d53">
      <path
         style="fill:#6c5d53;stroke-width:0.44408798"
         d="m 54.941263,165.07975 c -4.133601,-0.17461 -5.841613,-0.40438 -6.12739,-0.82428 -0.21792,-0.3202 -0.533379,-4.7917 -0.701015,-9.93666 -0.167632,-5.14496 -0.41319,-10.03365 -0.545678,-10.86375 -0.202178,-1.26671 -1.398448,-2.55705 -7.443442,-8.02878 l -7.202553,-6.51951 v 17.40669 c 0,20.47522 0.402496,18.99777 -5.061472,18.57905 -1.911029,-0.14645 -7.205845,-0.26628 -11.766251,-0.26628 -6.9159865,0 -8.4132475,-0.11023 -9.0245724,-0.66445 -0.8460164,-0.76699 -0.881538,-1.00473 -0.2791588,-1.8685 0.3737182,-0.53589 2.082579,-0.60929 11.4198362,-0.49054 l 10.980359,0.13965 v -18.60823 c 0,-10.23454 0.127394,-18.90922 0.283105,-19.27708 0.155705,-0.36786 0.616828,-0.66884 1.024715,-0.66884 0.764866,0 19.024698,16.03593 19.987045,17.55278 0.335282,0.52847 0.666478,4.53275 0.874332,10.57092 0.184031,5.3461 0.544027,9.95803 0.799996,10.24873 0.310385,0.3525 1.864916,0.52854 4.667265,0.52854 h 4.201873 l -0.210886,-10.33144 c -0.140808,-6.89847 -0.04496,-10.60486 0.288492,-11.15426 0.546648,-0.90068 31.804349,-30.96024 32.729846,-31.47526 1.005094,-0.55932 1.721575,0.0435 6.714551,5.64961 l 4.89728,5.49863 0.30894,-2.03252 c 0.16992,-1.1179 0.33055,-3.17419 0.35695,-4.56955 0.072,-3.80557 0.0354,-3.78402 6.70886,-3.94438 4.88405,-0.11736 5.89719,-0.0309 6.5476,0.55875 0.67235,0.60954 0.76948,1.98053 0.76948,10.86133 v 10.16374 l 3.14825,3.44255 3.14825,3.44253 0.13739,11.73372 0.13738,11.73372 h 3.77424 3.77424 l -0.22009,-17.31841 c -0.12106,-9.52512 -0.0672,-17.54271 0.11972,-17.81688 0.37557,-0.55091 2.03041,-0.69784 10.83212,-0.96175 4.5803,-0.13734 6.10731,-0.047 6.58905,0.38972 0.50028,0.45354 0.57785,2.28268 0.38364,9.04691 l -0.24341,8.47843 h 3.49464 3.49464 l 0.30408,-4.50556 c 0.16725,-2.47806 0.30408,-12.07146 0.30408,-21.31867 0,-9.24721 0.1274,-17.11408 0.28311,-17.48194 0.1557,-0.367866 0.62946,-0.668842 1.05278,-0.668842 0.42332,0 6.22513,4.948252 12.8929,10.996122 l 12.12323,10.99611 0.2392,19.84116 c 0.13155,10.91263 0.41084,19.99727 0.62063,20.18808 0.20978,0.19082 3.83578,0.44207 8.05776,0.55835 6.13426,0.16895 7.76492,0.33884 8.11736,0.84568 0.88221,1.26868 0.0724,2.21043 -1.94053,2.25674 -5.6816,0.13071 -16.61107,-0.22273 -17.19325,-0.55601 -0.60028,-0.34363 -0.73627,-3.31714 -0.95781,-20.94274 l -0.2582,-20.54225 -9.53636,-8.65735 -9.53635,-8.65735 -0.30895,2.01648 c -0.16992,1.10906 -0.33055,10.00809 -0.35695,19.77562 -0.028,10.35616 -0.23198,18.02353 -0.48935,18.39339 -0.66408,0.95434 -12.16177,1.18598 -13.17713,0.26547 -0.60723,-0.5505 -0.67573,-1.88612 -0.46795,-9.12334 l 0.24341,-8.47843 -5.08134,0.006 c -2.79473,0.003 -5.37283,0.17383 -5.72911,0.37836 -0.54148,0.31088 -0.61112,3.19524 -0.42443,17.5787 0.18752,14.44686 0.11775,17.30254 -0.43496,17.80361 -1.00429,0.91047 -12.36901,0.85303 -13.38456,-0.0676 -0.63264,-0.57354 -0.73293,-2.34441 -0.73293,-12.94238 v -12.27792 l -3.14825,-3.44254 -3.14825,-3.44254 -0.14097,-9.61953 -0.14098,-9.61954 h -3.41383 -3.41382 l -0.31236,5.60259 c -0.38842,6.96681 -0.58494,7.92818 -1.62062,7.92818 -0.47826,0 -3.26225,-2.74482 -6.84244,-6.74619 -3.319869,-3.71041 -6.163705,-6.75484 -6.319639,-6.76539 -0.155934,-0.0106 -7.057121,6.47743 -15.335969,14.41773 l -15.052451,14.43692 0.215056,11.18636 c 0.234342,12.18958 0.185085,12.44826 -2.341556,12.29651 -0.687116,-0.0413 -3.828328,-0.18397 -6.980468,-0.31712 z m 18.918534,-6.90178 c -0.590952,-0.41649 -0.772049,-1.46976 -0.854239,-4.96833 -0.05737,-2.44188 -0.07483,-4.77276 -0.0388,-5.17975 0.05842,-0.6601 0.666575,-0.73996 5.634845,-0.73996 3.063149,0 5.67913,0.16102 5.813292,0.35781 0.134158,0.1968 0.303958,2.58071 0.377333,5.29757 0.108645,4.02309 0.0037,5.01478 -0.566209,5.34401 -1.058498,0.61162 -9.468579,0.52129 -10.366203,-0.11135 z m 29.224963,-0.87152 c -0.12907,-0.30492 -0.17495,-2.73095 -0.10196,-5.39117 l 0.1327,-4.83677 5.35801,-0.1205 c 6.60753,-0.1486 6.53538,-0.20714 6.53538,5.30316 0,5.71235 0.12731,5.59968 -6.32755,5.59968 -3.99263,0 -5.42184,-0.14158 -5.59658,-0.5544 z"
         id="path840"
         inkscape:connector-curvature="0" />
      <path
         style="fill:#6c5d53;stroke-width:0.44408798"
         d="m 53.835472,164.7348 c -2.419288,-0.0841 -4.224663,-0.34591 -4.502795,-0.65301 -0.255354,-0.28196 -0.690689,-5.35928 -0.967409,-11.28295 l -0.503127,-10.7703 -7.348408,-6.67171 c -4.041625,-3.66944 -7.508282,-6.67171 -7.703683,-6.67171 -0.195402,0 -0.355272,7.87317 -0.355272,17.49595 0,14.69938 -0.107185,17.57659 -0.670573,18.00048 -0.999516,0.75203 -23.8407782,0.12455 -24.5727673,-0.67504 -0.3904063,-0.42647 -0.3692501,-0.73988 0.083314,-1.23425 0.5338685,-0.58318 1.9102135,-0.62648 11.4792893,-0.36117 l 10.872694,0.30147 0.121401,-19.15987 c 0.09703,-15.31272 0.243688,-19.19681 0.730422,-19.34384 0.335617,-0.10138 4.98312,3.77412 10.352682,8.63299 l 9.743666,8.81696 0.458217,10.29427 c 0.252014,5.66186 0.539475,10.36796 0.638796,10.458 0.09932,0.09 2.348049,0.29249 4.997168,0.44988 l 4.816585,0.28616 -0.340552,-10.80131 -0.340547,-10.80132 16.352952,-15.66192 c 8.994121,-8.61406 16.577355,-15.78765 16.851626,-15.94133 0.726892,-0.40727 1.49437,0.28835 6.651819,6.02908 2.55999,2.8495 4.80727,5.18091 4.99397,5.18091 0.18669,0 0.48858,-2.13676 0.67086,-4.74837 0.18229,-2.6116 0.55268,-4.99005 0.82311,-5.28545 0.66777,-0.72944 11.14378,-0.75549 11.94436,-0.0297 0.40408,0.36633 0.55969,3.31552 0.55969,10.60689 v 10.0995 l 3.26485,3.61015 3.26486,3.61014 v 11.78741 11.78742 h 4.26446 4.26446 l -0.34007,-17.4658 c -0.27931,-14.34517 -0.22874,-17.54595 0.28301,-17.91442 0.3427,-0.24674 4.10601,-0.57658 8.36291,-0.73298 6.57562,-0.24159 7.82716,-0.18897 8.32036,0.34978 0.4461,0.48731 0.50208,2.5962 0.24173,9.1078 l -0.33879,8.47364 h 4.02843 4.02842 l 0.0633,-6.65968 c 0.21828,-22.9588 0.66706,-37.04389 1.18527,-37.19993 0.30194,-0.09092 5.99643,4.74554 12.65442,10.74769 l 12.10543,10.913 0.30987,20.06897 c 0.17042,11.03794 0.36402,20.11807 0.43021,20.17808 0.0662,0.06 3.62591,0.23937 7.91047,0.39858 8.16377,0.30335 9.5406,0.6516 8.2312,2.08194 -0.52041,0.56848 -1.74873,0.61716 -9.26865,0.36731 -4.76781,-0.15841 -8.9311,-0.47661 -9.25175,-0.7071 -0.42992,-0.30904 -0.58323,-2.54284 -0.58387,-8.50691 -4.7e-4,-4.44832 -0.13208,-13.701 -0.29244,-20.56152 l -0.29159,-12.47368 -9.7114,-8.86602 c -5.34126,-4.87631 -9.82139,-8.7663 -9.95583,-8.64442 -0.13444,0.12188 -0.38353,9.24906 -0.55353,20.28261 -0.18658,12.10969 -0.49154,20.2705 -0.76941,20.58955 -0.7089,0.81399 -11.70248,0.73563 -12.4572,-0.0888 -0.42667,-0.46609 -0.48213,-2.69348 -0.22634,-9.09099 l 0.33879,-8.47365 h -2.55884 c -1.40736,0 -4.19531,0.12541 -6.19546,0.27869 l -3.63662,0.27869 0.33746,17.29203 c 0.25771,13.20582 0.20523,17.43647 -0.22212,17.90328 -0.73317,0.80089 -12.07583,0.89189 -12.94507,0.10386 -0.40948,-0.37123 -0.55969,-3.78534 -0.55969,-12.72108 v -12.21367 l -3.26485,-3.61015 -3.26485,-3.61015 v -9.67323 -9.67323 h -3.71013 -3.71012 l -0.23319,1.37422 c -0.12826,0.75582 -0.40013,3.75268 -0.60415,6.65968 -0.31516,4.4906 -0.48651,5.28546 -1.13938,5.28546 -0.42601,0 -3.40589,-2.92049 -6.68725,-6.55397 -3.255341,-3.60468 -6.075031,-6.60675 -6.265973,-6.67125 -0.329713,-0.11139 -4.267334,3.575 -22.864401,21.4056 l -8.091012,7.75754 0.334871,10.97813 c 0.252429,8.27547 0.197598,11.12808 -0.222733,11.58723 -0.384842,0.42039 -1.370818,0.58217 -3.182335,0.52216 -1.443605,-0.0478 -4.442064,-0.15012 -6.663245,-0.22732 z m 19.8716,-6.91027 c -0.172161,-0.25254 -0.426208,-2.46978 -0.564549,-4.92719 -0.314312,-5.58311 -0.289285,-5.60741 5.775621,-5.60741 5.713994,0 5.774263,0.059 5.774263,5.65393 0,2.80012 -0.197332,4.50391 -0.559689,4.83242 -0.727577,0.65961 -9.979682,0.70242 -10.425646,0.0482 z m 29.641628,-5.46056 v -5.10088 l 5.48029,0.11913 5.48029,0.11913 v 4.86262 4.86262 l -5.48029,0.11913 -5.48029,0.11913 z"
         id="path838"
         inkscape:connector-curvature="0" />
      <path
         style="fill:#6c5d53;stroke-width:0.44408798"
         d="m 50.568101,164.32688 c -1.561387,-0.21695 -1.658265,-0.84773 -2.03209,-13.23142 l -0.27443,-9.09099 -7.739312,-6.85732 c -4.256626,-3.77153 -7.918096,-6.75716 -8.136608,-6.63473 -0.218507,0.12244 -0.397291,8.20299 -0.397291,17.95679 V 164.2034 H 21.792504 c -12.2632267,0 -14.5237262,-0.20951 -14.5237262,-1.34612 0,-0.7747 0.4549338,-0.80572 10.9285362,-0.7453 6.0107,0.0347 11.152842,-0.0626 11.426982,-0.21624 0.341555,-0.19137 0.498445,-6.19399 0.498445,-19.07055 0,-14.76208 0.125006,-18.78687 0.583009,-18.77074 0.320655,0.0113 4.868594,3.78868 10.106526,8.39421 l 9.523517,8.37367 0.43763,10.31631 c 0.242252,5.71052 0.649043,10.55229 0.91116,10.84486 0.320902,0.35819 1.958402,0.52855 5.080487,0.52855 3.366626,0 4.611011,-0.1423 4.62199,-0.52855 0.0083,-0.2907 0.0098,-5.19032 0.0033,-10.88804 l -0.01157,-10.3595 16.10141,-15.43354 c 8.855775,-8.48844 16.465021,-15.4884 16.909432,-15.55547 0.551826,-0.0833 2.432945,1.69255 5.932878,5.60077 2.81867,3.14749 5.25374,5.72353 5.41127,5.72452 0.37573,0.003 0.87961,-3.39121 0.87961,-5.92406 0,-1.10127 0.13118,-2.59692 0.2915,-3.32367 l 0.29151,-1.32137 h 6.00499 6.005 v 9.96446 c 0,6.72143 0.17538,10.26505 0.53887,10.88804 0.29638,0.50797 1.76556,2.27215 3.26485,3.92039 l 2.72598,2.9968 v 11.61221 c 0,8.46793 0.15155,11.74959 0.55969,12.11961 0.72041,0.65311 7.65746,0.68803 8.0987,0.0408 0.17496,-0.25665 0.28032,-8.31561 0.23413,-17.90881 l -0.084,-17.44218 2.47523,-0.26949 c 1.36139,-0.14823 5.15886,-0.27115 8.43883,-0.27317 l 5.96359,-0.004 -0.0526,8.65618 c -0.0289,4.7609 0.0808,8.85184 0.24383,9.09098 0.41959,0.6155 6.92001,0.55349 7.6106,-0.0726 0.41673,-0.37779 0.55969,-4.8433 0.55969,-17.48194 2e-4,-18.67138 0.31649,-25.98552 1.12392,-25.98552 0.28356,0 5.86605,4.85342 12.40552,10.78538 l 11.88996,10.78538 0.16275,19.76457 c 0.10401,12.63178 0.33502,19.95531 0.64011,20.29311 0.33981,0.37624 2.32578,0.52855 6.89167,0.52855 7.80059,0 9.32934,0.22388 9.32934,1.36621 0,0.8114 -0.28391,0.83295 -9.05616,0.68711 -4.9809,-0.0828 -9.23104,-0.30907 -9.44475,-0.50282 -0.21373,-0.19374 -0.45932,-9.51729 -0.54577,-20.71899 l -0.15719,-20.36674 -10.06764,-9.17656 c -5.5372,-5.04712 -10.24131,-9.07926 -10.45358,-8.96033 -0.21227,0.11893 -0.38594,7.40592 -0.38594,16.1933 0,8.78739 -0.13684,18.00457 -0.30409,20.48263 l -0.30408,4.50556 h -6.22562 -6.22562 v -8.87957 -8.87957 h -5.80257 c -3.82424,0 -5.91407,0.16357 -6.12962,0.47976 -0.17989,0.26387 -0.28336,8.35062 -0.22995,17.97056 l 0.0971,17.4908 h -6.56049 -6.56049 v -12.07865 c 0,-8.32041 -0.16767,-12.36601 -0.53887,-13.00222 -0.29638,-0.50797 -1.76556,-2.27215 -3.26485,-3.92039 l -2.72598,-2.9968 v -9.49802 c 0,-6.82357 -0.1576,-9.6409 -0.55969,-10.00543 -0.60964,-0.55268 -6.32563,-0.69875 -7.19271,-0.1838 -0.29126,0.17298 -0.65749,2.18457 -0.82638,4.53902 -0.50849,7.08889 -0.81504,9.14162 -1.34145,8.98254 -0.27237,-0.0823 -3.14358,-3.08843 -6.38047,-6.68028 -3.294411,-3.65568 -6.225768,-6.53063 -6.658762,-6.53063 -0.586176,0 -19.750619,17.96005 -29.695707,27.82948 l -1.117148,1.10865 0.09747,11.42968 0.09748,11.42968 -5.976442,-0.0633 c -3.287038,-0.0348 -6.535599,-0.14105 -7.219021,-0.236 z m 23.131839,-7.02316 c -0.129703,-0.30643 -0.175588,-2.54218 -0.101966,-4.96833 l 0.133859,-4.4112 h 5.130482 5.130481 l 0.131406,4.96833 0.131401,4.96833 h -5.159921 c -3.838878,0 -5.220298,-0.14264 -5.395742,-0.55713 z m 29.85616,-0.40846 c -0.13305,-0.31433 -0.18167,-2.55655 -0.10805,-4.98271 l 0.13386,-4.4112 h 5.13048 5.13048 v 4.86262 4.86262 l -5.02243,0.1201 c -3.88289,0.0928 -5.07731,-0.01 -5.26434,-0.45143 z"
         id="path836"
         inkscape:connector-curvature="0" />
      <path
         style="fill:#6c5d53;stroke-width:0.44408798"
         d="m 52.976704,164.24086 -3.498056,-0.24888 -0.343989,-5.7083 c -0.189194,-3.13956 -0.474155,-8.15743 -0.633242,-11.15083 l -0.289252,-5.44254 -7.456408,-6.6083 c -4.101027,-3.63457 -7.751379,-6.66983 -8.111898,-6.74502 -0.555057,-0.11577 -0.655489,2.5911 -0.655489,17.6667 0,15.66677 -0.08649,17.8335 -0.720702,18.05414 -0.39639,0.13789 -5.905828,0.0844 -12.243194,-0.11899 -9.7500324,-0.31283 -11.5224925,-0.46726 -11.5224925,-1.00395 0,-0.54617 1.5546898,-0.63426 11.1937775,-0.63426 h 11.193778 l 0.121355,-19.13336 c 0.0741,-11.68372 0.293347,-19.13336 0.563089,-19.13336 0.242951,0 4.751091,3.8531 10.018086,8.56245 l 9.576351,8.56244 0.465862,10.3334 c 0.256225,5.68337 0.625732,10.47465 0.821133,10.6473 0.195402,0.17264 2.559047,0.37466 5.25255,0.44893 l 4.897278,0.13504 -0.165817,-10.80484 -0.165822,-10.80484 16.410992,-15.72816 c 9.026042,-8.65049 16.587476,-15.72816 16.803185,-15.72816 0.215709,0 2.849409,2.69156 5.852661,5.98124 3.85782,4.22574 5.56169,5.80805 5.80536,5.39117 0.18969,-0.32454 0.48746,-2.68265 0.66171,-5.24025 0.17425,-2.5576 0.48171,-4.79966 0.68324,-4.98236 0.20153,-0.1827 2.86756,-0.27831 5.92451,-0.21245 l 5.55809,0.11974 0.23321,10.45478 0.2332,10.45478 3.03165,3.28741 3.03165,3.28741 0.2332,12.05085 0.2332,12.05084 h 4.43087 4.43087 v -17.75914 -17.75914 l 7.5911,-0.3582 c 4.1751,-0.19701 7.92312,-0.24269 8.32893,-0.10151 0.64761,0.22529 0.71744,1.32906 0.57103,9.02635 l -0.1668,8.76967 3.9211,0.12388 c 2.1566,0.0681 4.08008,-0.027 4.27439,-0.21142 0.19432,-0.18442 0.50529,-10.08697 0.69104,-22.00568 0.18575,-11.91871 0.46757,-21.67038 0.62625,-21.67038 0.15867,0 5.67178,4.89962 12.25135,10.88805 l 11.96283,10.88804 0.32562,19.87332 c 0.17909,10.93033 0.40823,19.99721 0.5092,20.14863 0.10098,0.15141 3.75636,0.41374 8.12308,0.58295 7.56752,0.29324 9.0805,0.58471 8.021,1.54523 -0.66436,0.6023 -17.84482,-0.0292 -18.06697,-0.66405 -0.0906,-0.25901 -0.30377,-9.6042 -0.47363,-20.76708 l -0.30885,-20.29616 -9.85058,-8.98528 c -5.41781,-4.94191 -10.11938,-8.98528 -10.44792,-8.98528 -0.46191,0 -0.61237,1.7974 -0.66368,7.92819 -0.0365,4.3605 -0.19389,13.63648 -0.3498,20.61328 l -0.28346,12.6851 h -6.0633 -6.0633 v -8.87957 -8.87957 l -1.86563,-0.11106 c -1.02609,-0.0611 -3.85952,0.034 -6.2965,0.21141 l -4.43087,0.32249 v 17.75914 17.75914 h -6.2965 -6.2965 l -0.2332,-12.56874 -0.2332,-12.56873 -3.03165,-3.28764 -3.03165,-3.28764 -0.2332,-9.93666 -0.23321,-9.93666 h -3.94971 -3.94971 l -0.33457,1.69134 c -0.18401,0.93024 -0.47435,3.9365 -0.64521,6.68058 -0.21531,3.45806 -0.475,4.94157 -0.8462,4.83393 -0.29456,-0.0854 -3.20267,-3.08899 -6.46248,-6.6746 -3.259814,-3.58562 -6.119554,-6.57752 -6.354987,-6.64866 -0.235433,-0.0712 -5.952986,5.15877 -12.705679,11.62203 -6.752689,6.46327 -13.724537,13.12889 -15.492991,14.8125 l -3.215375,3.0611 0.160033,11.31534 0.160029,11.31535 -3.498055,0.0375 c -1.923931,0.0206 -5.072181,-0.0745 -6.996111,-0.21142 z m 20.747807,-7.31721 c -0.146387,-0.53106 -0.204623,-2.77319 -0.129414,-4.98252 l 0.136736,-4.01694 4.710668,-0.11981 c 3.637908,-0.0925 4.836659,0.0178 5.263935,0.48457 0.369073,0.40317 0.508836,2.06193 0.419813,4.98243 l -0.133453,4.37805 -5.001067,0.11989 c -4.869914,0.11676 -5.008045,0.0946 -5.267218,-0.84567 z m 30.357119,-0.1501 c -0.55596,-0.50402 -0.73293,-1.5687 -0.73293,-4.40958 0,-4.87711 0.20799,-5.07404 5.35886,-5.07404 2.14115,0 4.22499,0.11549 4.63076,0.25666 1.09434,0.38071 1.09434,9.25405 0,9.63476 -0.40577,0.14117 -2.48961,0.25666 -4.63076,0.25666 -2.91722,0 -4.07671,-0.16655 -4.62593,-0.66446 z"
         id="path834"
         inkscape:connector-curvature="0" />
      <path
         style="fill:#6c5d53;stroke-width:0.44408798"
         d="m 55.470122,164.31096 c -3.36609,-0.087 -5.363149,-0.3163 -5.658007,-0.64958 -0.250638,-0.28329 -0.645307,-5.35296 -0.877041,-11.26593 l -0.421334,-10.75084 -7.861096,-6.90259 c -4.323606,-3.79641 -8.041816,-6.90258 -8.262688,-6.90258 -0.220871,0 -0.401586,7.96832 -0.401586,17.70737 0,13.66399 -0.133126,17.80156 -0.583009,18.11989 -0.365565,0.25867 -4.844891,0.31741 -12.009991,0.15748 -9.7213432,-0.21697 -11.4269811,-0.34971 -11.4269811,-0.88929 0,-0.55021 1.4678121,-0.61427 11.0771761,-0.48347 l 11.077176,0.1508 v -18.83636 c 0,-12.24176 0.165136,-18.92889 0.471678,-19.10064 0.451482,-0.25297 18.868548,15.50711 19.292844,16.50951 0.112936,0.26682 0.358275,4.96993 0.545198,10.45135 0.186922,5.48142 0.513015,10.22073 0.724647,10.5318 0.273679,0.40226 1.886269,0.60727 5.58431,0.70994 l 5.199515,0.14435 -0.167846,-11.0174 -0.167846,-11.01741 2.388388,-2.23488 c 1.313613,-1.22918 8.521595,-8.13346 16.017736,-15.34282 7.496142,-7.20937 13.977167,-13.15686 14.402279,-13.21666 0.502222,-0.0706 2.557433,1.89158 5.868096,5.60259 2.80235,3.14122 5.35271,5.7113 5.66748,5.7113 0.40075,0 0.67233,-1.48943 0.90596,-4.96833 0.1835,-2.73258 0.54473,-5.20617 0.80273,-5.49687 0.6374,-0.71819 10.19979,-0.73659 10.98896,-0.0211 0.40379,0.36607 0.55969,3.29581 0.55969,10.51825 v 10.01085 l 3.26485,3.66984 3.26485,3.66984 v 11.81636 11.81636 h 4.71966 4.71966 l -0.17219,-17.52629 c -0.1114,-11.33886 -0.008,-17.66938 0.29422,-17.93161 0.58282,-0.5065 14.93766,-0.82368 15.46888,-0.34179 0.21393,0.19406 0.3126,4.23743 0.21926,8.98528 l -0.16972,8.63243 h 4.41273 4.41271 l 0.30235,-4.75691 c 0.16629,-2.6163 0.3033,-12.30917 0.30446,-21.53971 0.001,-11.9989 0.15207,-16.86682 0.52816,-17.07755 0.31397,-0.17591 5.28028,4.0331 12.31868,10.44026 l 11.79264,10.73499 0.15908,19.94503 c 0.0875,10.96976 0.33303,20.10303 0.54564,20.29616 0.21261,0.19312 3.88496,0.44627 8.16077,0.56255 6.40076,0.17407 7.77421,0.32055 7.77421,0.82917 0,0.52361 -1.27933,0.59835 -8.39533,0.49042 -4.61743,-0.07 -8.6326,-0.30486 -8.92257,-0.52185 -0.37384,-0.27974 -0.58154,-6.30064 -0.71382,-20.69257 l -0.18657,-20.29803 -10.34459,-9.37822 c -5.68952,-5.15802 -10.51044,-9.22796 -10.71316,-9.04431 -0.20272,0.18364 -0.43989,9.40386 -0.52704,20.48936 -0.10242,13.02724 -0.32881,20.3424 -0.64012,20.68401 -0.33352,0.36599 -2.1053,0.52855 -5.76071,0.52855 -3.71112,0 -5.39109,-0.15698 -5.65628,-0.52855 -0.20747,-0.2907 -0.3009,-4.38164 -0.20761,-9.09098 l 0.1696,-8.56245 -5.5334,0.006 c -3.04337,0.003 -6.03035,0.12636 -6.63773,0.27375 l -1.10433,0.26798 0.17152,17.37968 c 0.0943,9.55882 0.002,17.61752 -0.20582,17.90822 -0.51666,0.72371 -11.09347,0.74252 -11.88918,0.0211 -0.40929,-0.37105 -0.55969,-3.76564 -0.55969,-12.63243 v -12.12503 l -3.26485,-3.66985 -3.26485,-3.66984 v -9.70218 -9.70217 h -4.19767 c -2.30872,0 -4.22339,0.0476 -4.25484,0.10571 -0.0314,0.0581 -0.29379,2.95985 -0.583,6.44826 -0.36112,4.35564 -0.69977,6.34255 -1.08103,6.34255 -0.30536,0 -3.14466,-2.85415 -6.30956,-6.34255 -3.359196,-3.70256 -6.088882,-6.34255 -6.558037,-6.34255 -0.451258,0 -7.471483,6.3968 -16.009565,14.58786 l -15.205889,14.58786 0.164764,10.99376 c 0.09062,6.04656 -0.005,11.2316 -0.212566,11.5223 -0.207532,0.2907 -0.837182,0.48787 -1.399222,0.43816 -0.562039,-0.0497 -3.362928,-0.15091 -6.224193,-0.22489 z m 18.806914,-6.76724 c -0.115203,-0.17442 -0.285003,-2.31503 -0.377333,-4.75691 l -0.16787,-4.43979 4.946167,-0.11939 4.946162,-0.11939 0.325016,4.27811 c 0.231077,3.04171 0.166745,4.451 -0.222603,4.87631 -0.400396,0.43738 -1.715978,0.59819 -4.893845,0.59819 -2.390426,0 -4.440492,-0.14271 -4.555694,-0.31713 z m 29.744354,-1.07394 c -0.13389,-0.31632 -0.18261,-2.36849 -0.10826,-4.56037 l 0.13518,-3.98522 h 4.89728 4.89728 v 4.43978 4.43979 l -4.78902,0.12058 c -3.70167,0.0932 -4.84429,-0.01 -5.03246,-0.45456 z"
         id="path832"
         inkscape:connector-curvature="0" />
      <path
         style="fill:#6c5d53;stroke-width:0.44408798"
         d="m 52.443246,163.89227 -2.632292,-0.15123 -0.275157,-4.52573 c -0.151335,-2.48916 -0.409352,-7.46615 -0.573359,-11.05998 l -0.298207,-6.53425 -2.15803,-1.97415 c -6.682741,-6.11329 -14.094389,-12.25616 -14.508003,-12.02441 -0.311938,0.17478 -0.476235,6.45793 -0.476235,18.21244 v 17.9456 h -5.523145 c -8.792582,0 -18.2636328,-0.50754 -18.2636328,-0.97872 0,-0.2803 3.7085778,-0.33008 10.9039198,-0.14636 8.825608,0.22535 11.002681,0.17053 11.422075,-0.2876 0.358527,-0.39164 0.555589,-6.32747 0.639663,-19.26754 l 0.121509,-18.70152 9.462613,8.37999 9.462618,8.37999 0.473898,10.34387 c 0.260647,5.68914 0.671729,10.55998 0.913515,10.82409 0.611525,0.66801 9.761529,1.14136 10.552911,0.54593 0.487461,-0.36677 0.552077,-2.59754 0.321117,-11.08652 l -0.28914,-10.62737 16.212214,-15.53925 c 8.916716,-8.54658 16.371436,-15.53925 16.56604,-15.53925 0.194604,0 2.632888,2.55455 5.418409,5.67676 4.721843,5.2926 6.032433,6.48327 6.584923,5.98239 0.18496,-0.16768 0.94335,-7.64906 1.02116,-10.07351 0.0213,-0.66242 0.61024,-0.73996 5.62063,-0.73996 h 5.59689 v 10.05399 c 0,11.28341 -0.32644,10.09094 4.05475,14.81173 l 2.47495,2.66678 v 11.7308 c 0,8.56017 0.15128,11.86794 0.55969,12.2382 0.75926,0.68833 8.38596,0.68504 9.14594,-0.004 0.43308,-0.39263 0.49161,-4.54927 0.25207,-17.90218 l -0.31199,-17.39081 5.04426,-0.27981 c 2.77434,-0.15403 6.40917,-0.27995 8.07741,-0.27995 h 3.03315 l -0.29493,8.59478 c -0.21703,6.325 -0.15037,8.72581 0.25243,9.09099 0.74051,0.67133 7.92022,0.66206 8.66284,-0.0112 0.40506,-0.36723 0.57688,-3.72563 0.62192,-12.15655 0.0342,-6.40704 0.19165,-16.07521 0.34981,-21.48484 l 0.28757,-9.83568 11.75738,10.68136 11.75739,10.68135 0.31432,19.87333 c 0.19019,12.02502 0.4967,20.08205 0.77612,20.40186 0.29167,0.33383 1.68653,0.52936 3.78615,0.53074 5.72106,0.004 12.41929,0.52826 12.41929,0.97248 0,0.27921 -2.98385,0.32357 -8.72603,0.12974 -4.79932,-0.16201 -8.777,-0.34077 -8.8393,-0.39725 -0.0623,-0.0565 -0.25466,-9.3244 -0.42746,-20.59538 l -0.31418,-20.49266 -10.07181,-9.1967 c -5.60314,-5.1163 -10.44016,-9.1967 -10.90203,-9.1967 -0.76665,0 -0.83023,0.60995 -0.83023,7.96502 0,4.38076 -0.13878,13.70431 -0.30842,20.719 l -0.30841,12.75397 h -5.82894 -5.82894 l 0.29595,-8.62488 c 0.23699,-6.90641 0.17258,-8.71771 -0.32326,-9.09079 -0.75888,-0.57098 -11.88543,-0.14185 -12.77233,0.4926 -0.4652,0.33279 -0.52244,4.0727 -0.27415,17.91283 l 0.3138,17.49222 h -6.13895 -6.13894 v -12.16818 c 0,-13.66363 0.3788,-12.07984 -4.06215,-16.98411 l -2.46756,-2.725 v -9.55841 c 0,-6.87053 -0.15739,-9.70109 -0.55969,-10.0658 -0.61973,-0.56184 -7.24044,-0.70311 -8.15826,-0.17408 -0.34773,0.20043 -0.75077,2.68731 -1.07652,6.64254 -0.28639,3.47719 -0.59251,6.38727 -0.68029,6.46684 -0.0878,0.0796 -2.92488,-2.91249 -6.30469,-6.64902 -3.379808,-3.73653 -6.286637,-6.79078 -6.459613,-6.78721 -0.67193,0.0138 -0.454286,-0.19071 -29.096178,27.34488 l -2.720498,2.61541 0.317329,11.23249 0.31733,11.23249 -4.155359,-0.0799 c -2.285443,-0.044 -5.339884,-0.14801 -6.787645,-0.23118 z m 21.721772,-7.01453 c -0.13043,-0.30814 -0.176311,-2.35362 -0.101961,-4.54549 l 0.135184,-3.98523 h 4.664074 4.664074 l 0.13238,4.5455 0.132381,4.54549 h -4.694489 c -3.467086,0 -4.756497,-0.14648 -4.931643,-0.56027 z m 29.856592,-0.40743 c -0.13401,-0.31662 -0.18283,-2.36902 -0.10848,-4.5609 l 0.13518,-3.98522 h 4.66408 4.66407 v 4.43978 4.43979 l -4.55559,0.1211 c -3.50739,0.0933 -4.61165,-0.0113 -4.79926,-0.45455 z"
         id="path830"
         inkscape:connector-curvature="0" />
      <path
         style="fill:#6c5d53;stroke-width:0.44408798"
         d="m 55.775148,163.80423 -5.830092,-0.23509 -0.126835,-2.53702 c -0.06976,-1.39536 -0.2924,-6.38994 -0.494756,-11.09907 l -0.367916,-8.56204 -7.853559,-6.87149 c -4.319455,-3.77932 -8.242011,-6.9323 -8.716791,-7.00661 -0.828843,-0.12974 -0.863236,0.58105 -0.863236,17.83989 0,9.88626 -0.157413,18.0418 -0.349806,18.12344 -0.638152,0.27076 -22.9705597,-0.17122 -22.9709188,-0.45463 -1.959e-4,-0.15297 4.9845328,-0.27814 11.0771758,-0.27814 h 11.07753 l 0.121453,-18.71052 c 0.06844,-10.54376 0.30233,-18.71053 0.535855,-18.71053 0.22792,0 4.498313,3.60851 9.489763,8.0189 l 9.07536,8.0189 0.416544,10.5513 c 0.229099,5.80322 0.590896,10.70958 0.803993,10.90304 0.213097,0.19346 2.836639,0.35175 5.830093,0.35175 h 5.442643 l 0.0292,-10.82635 c 0.02714,-10.04977 0.09403,-10.90042 0.932815,-11.85904 1.71748,-1.96282 31.10866,-29.95778 31.451922,-29.95778 0.189422,0 2.628407,2.55827 5.419971,5.68504 4.990214,5.58943 6.051354,6.5096 6.747484,5.85112 0.19245,-0.18204 0.52465,-2.70944 0.73822,-5.61645 l 0.38831,-5.28545 h 5.36369 5.36368 l 0.12505,10.31533 0.12505,10.31534 3.24931,3.61977 3.2493,3.61976 0.1237,11.85793 0.12371,11.85794 h 4.89727 4.89728 l 0.013,-17.63 c 0.007,-9.69651 0.11211,-17.71972 0.23321,-17.82936 0.1211,-0.10964 3.56748,-0.25091 7.65863,-0.31392 l 7.43845,-0.11457 0.0241,8.85294 0.0241,8.85293 h 4.66408 4.66407 l 0.29529,-2.74844 c 0.16241,-1.51164 0.31982,-11.16817 0.34981,-21.45896 0.03,-10.29078 0.2135,-18.71052 0.40781,-18.71052 0.19432,0 5.53278,4.70934 11.86325,10.46521 l 11.50995,10.46521 0.14674,19.94404 c 0.0807,10.96922 0.32122,20.10249 0.53448,20.29616 0.21326,0.19366 3.93869,0.41572 8.27873,0.49347 4.34005,0.0777 7.8912,0.26801 7.89145,0.42283 4.7e-4,0.28828 -15.65985,0.1666 -16.62663,-0.12919 -0.38969,-0.11922 -0.57983,-5.74464 -0.69961,-20.69773 l -0.16448,-20.53401 -10.25699,-9.3059 c -8.62953,-7.82936 -11.40243,-9.9593 -11.97743,-9.2002 -0.044,0.0581 -0.20145,9.42926 -0.34981,20.82471 l -0.26973,20.719 h -5.57317 -5.57317 l -0.0237,-8.87957 -0.0237,-8.87957 -5.95125,-0.11838 c -3.73794,-0.0743 -6.31296,0.0571 -6.92382,0.3535 -0.96559,0.4685 -0.97151,0.59801 -0.82609,18.08893 l 0.14646,17.61706 h -5.81565 -5.81565 l -0.12375,-12.42808 -0.12375,-12.42807 -3.24934,-3.6198 -3.24934,-3.61981 -0.12496,-9.74516 -0.12493,-9.74515 -4.39189,-0.12251 c -2.99894,-0.0837 -4.49964,0.0355 -4.73159,0.37578 -0.18683,0.27406 -0.49032,3.13577 -0.67442,6.35935 -0.18411,3.22358 -0.49265,5.86106 -0.68565,5.86106 -0.193,0 -2.91933,-2.85415 -6.05851,-6.34255 -4.257413,-4.73102 -5.962142,-6.33345 -6.709368,-6.30674 -0.687895,0.0246 -5.75099,4.60983 -16.159995,14.63479 l -15.158241,14.59898 -0.01679,11.47251 c -0.01432,9.77129 -0.118038,11.47645 -0.699611,11.49904 -0.37556,0.0146 -3.306376,-0.0793 -6.512927,-0.20855 z m 18.947148,-6.70449 c -0.126835,-0.18605 -0.27463,-2.13639 -0.328439,-4.33408 l -0.09784,-3.9958 4.434191,-0.12032 4.434187,-0.12031 0.244743,4.13726 c 0.134605,2.27549 0.151195,4.27997 0.03685,4.45439 -0.279915,0.42703 -8.431653,0.40727 -8.723712,-0.0211 z m 29.559224,-4.73577 v -4.25899 l 4.54747,0.12102 4.54747,0.12102 v 4.01695 4.01695 l -4.54747,0.12102 -4.54747,0.12102 z"
         id="path828"
         inkscape:connector-curvature="0" />
    </g>
    <text
       xml:space="preserve"
       style="font-style:normal;font-variant:normal;font-weight:normal;font-stretch:normal;font-size:35.69205475px;line-height:1.25;font-family:'Times New Roman';-inkscape-font-specification:'Times New Roman, ';letter-spacing:0px;word-spacing:0px;fill:#aa8800;fill-opacity:1;stroke:none;stroke-width:0.89230132;"
       x="4.3292446"
       y="178.4118"
       id="text844"
       transform="scale(0.91567852,1.0920863)"><tspan
         sodipodi:role="line"
         id="tspan842"
         x="4.3292446"
         y="178.4118"
         style="fill:#aa8800;stroke-width:0.89230132;">Serviços Torres</tspan></text>
    <flowRoot
       xml:space="preserve"
       id="flowRoot846"
       style="fill:black;fill-opacity:1;stroke:none;font-family:'Times New Roman';font-style:normal;font-weight:normal;font-size:40px;line-height:1.25;letter-spacing:0px;word-spacing:0px;-inkscape-font-specification:'Times New Roman, ';font-stretch:normal;font-variant:normal"><flowRegion
         id="flowRegion848"><rect
           id="rect850"
           width="62.629459"
           height="40.406101"
           x="371.73615"
           y="680.07288" /></flowRegion><flowPara
         id="flowPara852"></flowPara></flowRoot>    <flowRoot
       xml:space="preserve"
       id="flowRoot854"
       style="fill:black;fill-opacity:1;stroke:none;font-family:'Times New Roman';font-style:normal;font-weight:normal;font-size:40px;line-height:1.25;letter-spacing:0px;word-spacing:0px;-inkscape-font-specification:'Times New Roman, ';font-stretch:normal;font-variant:normal"><flowRegion
         id="flowRegion856"><rect
           id="rect858"
           width="66.670067"
           height="107.07617"
           x="56.568542"
           y="671.99164" /></flowRegion><flowPara
         id="flowPara860"></flowPara></flowRoot>    <text
       xml:space="preserve"
       style="font-style:normal;font-variant:normal;font-weight:normal;font-stretch:normal;font-size:10.58333302px;line-height:1.25;font-family:'Times New Roman';-inkscape-font-specification:'Times New Roman, ';letter-spacing:0px;word-spacing:0px;fill:#000000;fill-opacity:1;stroke:none;stroke-width:0.26458332"
       x="18.708866"
       y="211.47375"
       id="text864"><tspan
         sodipodi:role="line"
         id="tspan862"
         x="18.708866"
         y="211.47375"
         style="stroke-width:0.26458332;fill:#483e37">Serviço Predial Comercial e Residencial</tspan></text>
  </g>
</svg>
