<?xml version="1.0" encoding="UTF-8" standalone="no"?>
<!-- Created with Inkscape (http://www.inkscape.org/) -->

<svg
   xmlns:dc="http://purl.org/dc/elements/1.1/"
   xmlns:cc="http://creativecommons.org/ns#"
   xmlns:rdf="http://www.w3.org/1999/02/22-rdf-syntax-ns#"
   xmlns:svg="http://www.w3.org/2000/svg"
   xmlns="http://www.w3.org/2000/svg"
   xmlns:sodipodi="http://sodipodi.sourceforge.net/DTD/sodipodi-0.dtd"
   xmlns:inkscape="http://www.inkscape.org/namespaces/inkscape"
   width="210mm"
   height="297mm"
   viewBox="0 0 210 297"
   version="1.1"
   id="svg43"
   inkscape:version="0.92.4 (5da689c313, 2019-01-14)"
   sodipodi:docname="serviços torres com fundo.svg"
   inkscape:export-filename="C:\Users\Thinkpad\Documents\Projetos\05.Torres\serviços_torres_com_fundo_gold.png"
   inkscape:export-xdpi="96"
   inkscape:export-ydpi="96">
  <defs
     id="defs37" />
  <sodipodi:namedview
     id="base"
     pagecolor="#ffffff"
     bordercolor="#666666"
     borderopacity="1.0"
     inkscape:pageopacity="0.0"
     inkscape:pageshadow="2"
     inkscape:zoom="0.49497475"
     inkscape:cx="135.9059"
     inkscape:cy="618.03548"
     inkscape:document-units="mm"
     inkscape:current-layer="layer1"
     showgrid="false"
     inkscape:window-width="1366"
     inkscape:window-height="705"
     inkscape:window-x="-8"
     inkscape:window-y="-8"
     inkscape:window-maximized="1" />
  <metadata
     id="metadata40">
    <rdf:RDF>
      <cc:Work
         rdf:about="">
        <dc:format>image/svg+xml</dc:format>
        <dc:type
           rdf:resource="http://purl.org/dc/dcmitype/StillImage" />
        <dc:title></dc:title>
      </cc:Work>
    </rdf:RDF>
  </metadata>
  <g
     inkscape:label="Camada 1"
     inkscape:groupmode="layer"
     id="layer1">
    <rect
       style="opacity:1;fill:#1e88e5;fill-opacity:1;stroke:#000000;stroke-width:1.25198066;stroke-opacity:1"
       id="rect917"
       width="207.68124"
       height="294.8111"
       x="0.5345332"
       y="1.3999031"
       inkscape:export-xdpi="96"
       inkscape:export-ydpi="96" />
    <g
       id="g56"
       transform="translate(1.0690781)">
      <path
         style="fill:#fefae7;stroke-width:0.31057322"
         d="m 23.531059,180.69722 c -0.361233,-0.0926 -0.55506,-0.43982 -0.55506,-0.99431 0,-0.71096 0.164083,-0.88347 0.99118,-1.04207 0.545149,-0.10454 9.678185,-0.19007 20.295634,-0.19007 h 19.304454 l 0.08302,-37.07568 c 0.04566,-20.39162 0.201779,-37.18969 0.346923,-37.32905 0.145144,-0.13936 4.76866,-0.2932 10.274479,-0.34186 l 10.01058,-0.0885 -0.233008,-18.96866 C 83.817699,65.816088 83.82024,65.696316 84.458674,65.368718 c 0.685995,-0.352004 18.606016,-0.4851 19.530246,-0.145055 0.4341,0.159712 0.50171,0.995244 0.50171,6.199738 v 6.015148 l 7.72696,0.114328 c 5.90777,0.08741 7.84929,0.211683 8.24661,0.527841 0.46771,0.372165 0.52014,1.831161 0.52443,14.593243 l 0.005,14.179739 4.99078,4.54249 c 2.74493,2.49837 6.88196,6.28869 9.19339,8.42294 l 4.2026,3.88045 2.7e-4,7.54264 c 1.4e-4,4.14846 0.0949,16.47197 0.21065,27.38559 l 0.21038,19.84294 h 20.06807 c 12.27156,0 20.38415,0.11522 20.88166,0.29658 0.97517,0.35548 1.08625,1.36674 0.20008,1.82147 -0.98357,0.5047 -42.23848,0.42902 -42.96283,-0.0788 -0.52663,-0.36922 -0.57776,-2.11557 -0.8249,-28.17557 l -0.26347,-27.78195 -2.01103,-1.9073 c -4.98071,-4.7238 -26.71497,-24.442239 -26.82485,-24.336887 -0.0674,0.06461 0.19035,18.468097 0.57275,40.896627 0.72071,42.27126 0.72756,41.69869 -0.49877,41.69869 -1.17267,0 -1.16728,0.12317 -1.91268,-43.70963 -0.40032,-23.5404 -0.66054,-42.90514 -0.57828,-43.032758 0.4434,-0.687868 1.71133,0.185666 6.17402,4.253536 2.70651,2.467062 5.30439,4.817332 5.77307,5.222812 l 0.85215,0.73726 V 92.192012 80.009192 l -7.72696,-0.114329 c -6.0871,-0.09007 -7.84252,-0.206294 -8.27153,-0.547665 -0.4947,-0.393644 -0.52377,-0.957336 -0.31743,-6.154294 l 0.22715,-5.720959 -8.052384,-1.81e-4 -8.052377,-1.81e-4 0.0702,11.784304 c 0.03861,6.481364 0.161361,14.55547 0.272773,17.942455 l 0.202575,6.158158 h 6.456086 c 6.058329,0 6.476318,0.0362 6.784427,0.58822 0.45718,0.81904 0.45718,74.94342 0,75.76247 -0.422426,0.75678 -1.458321,0.75678 -1.880748,0 -0.221149,-0.3962 -0.328336,-12.62287 -0.328336,-37.45345 v -36.86522 l -6.711871,0.20041 c -3.691528,0.11023 -10.826351,0.20042 -15.85516,0.20042 h -9.143294 l -0.08301,37.22773 c -0.04566,20.47525 -0.201897,37.34175 -0.347199,37.48111 -0.271967,0.26084 -41.164192,0.4539 -42.158313,0.19903 z"
         id="path70"
         inkscape:connector-curvature="0" />
      <path
         style="fill:#fef5c8;stroke-width:0.31057322"
         d="m 23.293176,180.14335 c -0.315016,-0.36393 -0.315016,-0.54838 0,-0.91231 0.343379,-0.3967 3.015341,-0.45616 20.496788,-0.45616 h 20.101941 v -37.04016 c 0,-28.40354 0.08875,-37.12524 0.380613,-37.40508 0.272376,-0.26115 2.324369,-0.36538 7.215789,-0.3665 3.759347,-9.2e-4 8.237549,-0.0906 9.951557,-0.19943 l 3.116384,-0.19785 -0.103197,-19.035303 -0.103193,-19.035304 9.761399,-0.08043 c 8.917233,-0.07348 9.779183,-0.036 9.967023,0.433328 0.1131,0.282568 0.21645,3.05572 0.22969,6.16256 l 0.0241,5.6488 7.77085,0.152053 c 4.27397,0.08363 7.94927,0.262766 8.16733,0.398081 0.30783,0.191022 0.39665,3.420476 0.39728,14.445053 l 9.5e-4,14.199022 8.80087,8.02195 c 4.84048,4.41206 8.97126,8.2438 9.17952,8.51497 0.28277,0.36819 0.43592,7.44297 0.60479,27.93864 l 0.22614,27.4456 20.48752,0.005 c 11.26813,0.002 20.67997,0.1216 20.91519,0.26452 0.23523,0.14292 0.37602,0.51716 0.31287,0.83164 -0.11085,0.55197 -0.85057,0.57428 -21.36141,0.64436 -12.84407,0.0439 -21.43208,-0.0403 -21.71566,-0.21302 -0.45138,-0.27485 -0.64173,-10.9177 -0.93114,-52.06137 l -0.0272,-3.84888 -13.24216,-12.12936 C 109.04518,98.644669 108.02507,97.737602 107.80952,97.944272 c -0.0843,0.08084 0.13317,16.624418 0.48331,36.763488 0.7891,45.38719 0.7896,45.55106 0.1412,45.78963 -0.2734,0.10059 -0.66071,0.026 -0.86071,-0.16575 -0.26262,-0.25181 -0.55948,-11.7294 -1.06877,-41.32282 -0.38784,-22.5358 -0.71416,-41.829485 -0.72518,-42.87485 -0.017,-1.615438 0.0633,-1.900373 0.53503,-1.898728 0.30529,0.0012 3.19557,2.408249 6.42285,5.349292 l 5.86778,5.347356 0.083,-12.267315 c 0.0456,-6.747022 0.0144,-12.438549 -0.0694,-12.647844 -0.11597,-0.289762 -1.9376,-0.380532 -7.63678,-0.380532 -4.86573,0 -7.71404,-0.117798 -8.14059,-0.336673 -0.63511,-0.325892 -0.65221,-0.523026 -0.53421,-6.158153 l 0.12191,-5.821482 -8.167324,-0.08116 -8.167322,-0.08116 6.35e-4,10.268725 c 3.17e-4,5.647796 0.09463,13.86098 0.209489,18.251515 l 0.208842,7.982789 h 6.575894 c 5.703759,0 6.601423,0.0638 6.768414,0.48103 0.251652,0.62876 0.251652,74.73988 0,75.36864 -0.158738,0.39662 -1.192537,0.68154 -1.469513,0.405 -0.04188,-0.0418 -0.14893,-16.8392 -0.237883,-37.32753 l -0.161735,-37.25151 -10.46686,0.0796 c -5.756772,0.0438 -13.000315,0.16462 -16.096761,0.26855 l -5.629902,0.18896 v 36.99816 c 0,28.37088 -0.08875,37.08326 -0.380613,37.3631 -0.288248,0.27636 -5.397484,0.36492 -21.053473,0.36492 -17.988915,0 -20.724104,-0.0592 -21.067692,-0.45616 z"
         id="path68"
         inkscape:connector-curvature="0" />
      <path
         style="fill:#fef1b0;stroke-width:0.31057322"
         d="m 23.45317,179.99348 c -0.108587,-0.16846 -0.10922,-0.44313 -0.0014,-0.61039 0.127346,-0.19756 7.234202,-0.30411 20.284149,-0.30411 18.025147,0 20.107894,-0.0494 20.280645,-0.48103 0.105889,-0.26457 0.192523,-17.02035 0.192523,-37.23508 0,-28.47943 0.08663,-36.80538 0.384778,-36.98206 0.211627,-0.1254 4.802198,-0.28833 10.201268,-0.36206 l 9.816493,-0.13406 -0.207837,-18.95714 C 84.200813,66.414432 84.210261,65.963067 84.80711,65.656806 c 0.827865,-0.424801 17.92477,-0.423707 18.75284,0.0012 0.57405,0.294572 0.61351,0.692602 0.61351,6.188306 v 5.873487 l 7.85014,0.211685 c 6.81877,0.183875 7.90335,0.278905 8.25506,0.723293 0.31565,0.39882 0.39909,3.571456 0.37849,14.391451 l -0.0264,13.879842 3.58623,3.3329 c 1.97242,1.83309 6.05377,5.58013 9.06966,8.32675 3.0159,2.74662 5.54057,5.26756 5.61039,5.60207 0.0698,0.33452 0.21401,12.70885 0.32043,27.49852 0.10643,14.78967 0.26637,27.00334 0.35542,27.14149 0.0891,0.13816 9.43094,0.25119 20.75974,0.25119 20.38637,0 20.59782,0.006 20.59782,0.60821 0,0.60221 -0.21145,0.60822 -21.39076,0.60822 -13.01296,0 -21.46296,-0.112 -21.57509,-0.28595 -0.10138,-0.15728 -0.25698,-11.27616 -0.34578,-24.70865 -0.0888,-13.43247 -0.24127,-25.94398 -0.33881,-27.80335 l -0.17736,-3.38066 -14.42945,-13.19313 c -7.93619,-7.25623 -14.56024,-13.238754 -14.7201,-13.294506 -0.39497,-0.137748 -0.37526,2.335483 0.34369,43.132416 0.76273,43.28062 0.74855,39.2068 0.13727,39.4317 -0.2734,0.10059 -0.63658,0.0491 -0.80708,-0.11433 -0.30772,-0.29504 -1.90894,-84.680774 -1.6217,-85.465508 0.0765,-0.209073 0.2552,-0.380133 0.39705,-0.380133 0.14185,0 2.84821,2.360626 6.01415,5.245835 3.16593,2.885206 5.8892,5.291446 6.05171,5.347196 0.17945,0.0616 0.29546,-4.845977 0.29546,-12.498492 V 79.727976 l -7.85014,-0.216664 c -4.31758,-0.119167 -7.98889,-0.348111 -8.15847,-0.508764 -0.18522,-0.175478 -0.269,-2.59629 -0.20982,-6.063404 l 0.0985,-5.771306 H 94.268606 85.89352 l 0.128758,16.801877 c 0.07082,9.241032 0.225776,17.486115 0.344353,18.322405 l 0.215595,1.52054 h 6.496079 6.496076 l 0.08053,37.93727 c 0.08015,37.75978 0.07756,37.93726 -0.553802,37.93726 -0.630425,0 -0.634827,-0.22896 -0.714883,-37.177 l -0.08055,-37.177 -16.176055,0.11285 c -8.896831,0.0621 -16.247421,0.17609 -16.334645,0.25339 -0.08722,0.0773 -0.229954,16.85879 -0.317178,37.29222 l -0.158588,37.1517 -20.8343,0.0782 c -13.734233,0.0516 -20.901584,-0.0262 -21.031734,-0.22808 z"
         id="path66"
         inkscape:connector-curvature="0" />
      <path
         style="fill:#feeb8b;stroke-width:0.31057322"
         d="m 23.670242,179.76541 c 0.100613,-0.50115 1.359062,-0.54383 20.243767,-0.68643 l 20.136484,-0.15205 0.158589,-37.25303 0.158589,-37.25303 9.947618,-0.21174 c 5.471192,-0.11646 10.038549,-0.29975 10.149682,-0.40731 0.111136,-0.10756 0.202064,-8.702119 0.202064,-19.099014 V 65.79936 l 9.493635,-0.08064 c 6.3693,-0.0541 9.5613,0.02433 9.69923,0.238308 0.11307,0.175419 0.13916,2.860695 0.058,5.967279 -0.12014,4.596986 -0.0658,5.698006 0.29186,5.915189 0.24172,0.146771 3.74628,0.268952 7.78792,0.271513 4.04164,0.0024 7.5742,0.08772 7.85014,0.189245 0.44759,0.16468 0.50171,1.718128 0.50171,14.402149 v 14.217567 l 9.19815,8.42786 9.19815,8.42786 0.0449,8.26487 c 0.0247,4.54567 0.13175,16.9547 0.23788,27.57561 l 0.19297,19.31076 20.77513,0.15205 c 18.18484,0.1331 20.77513,0.20893 20.77513,0.60821 0,0.40012 -2.58928,0.46577 -21.07417,0.53438 -14.48915,0.0538 -21.17894,-0.0222 -21.40948,-0.24325 -0.22719,-0.21779 -0.411,-9.20518 -0.56998,-27.86906 -0.18258,-21.43389 -0.32337,-27.65167 -0.63436,-28.01655 -1.48221,-1.73902 -29.23575,-26.813917 -29.45047,-26.608046 -0.14784,0.141744 0.0403,18.695876 0.41798,41.231406 0.68593,40.92344 0.67511,42.39681 -0.30423,41.45783 -0.18147,-0.174 -1.48679,-66.14523 -1.64822,-83.301964 -0.0182,-1.931617 0.0644,-2.360629 0.43905,-2.280798 0.25379,0.05408 3.02509,2.458949 6.15844,5.344158 3.13335,2.885214 5.85167,5.245834 6.0407,5.245834 0.24134,0 0.3437,-3.794 0.3437,-12.73993 0,-11.336617 -0.0553,-12.760264 -0.50171,-12.924521 -0.27594,-0.101525 -3.8085,-0.186684 -7.85014,-0.189245 -4.04164,-0.0024 -7.54924,-0.126539 -7.79466,-0.275508 -0.3683,-0.223555 -0.41409,-1.248405 -0.26223,-5.869211 0.1012,-3.0791 0.078,-5.762864 -0.0516,-5.96392 -0.17593,-0.27292 -2.31984,-0.344961 -8.460159,-0.284285 l -8.224516,0.08127 -0.07653,9.883457 c -0.04209,5.435901 0.02928,13.715197 0.158588,18.398435 l 0.235121,8.514988 6.660729,0.15205 6.660729,0.15205 v 37.70919 c 0,33.31655 -0.05542,37.70919 -0.475767,37.70919 -0.41987,0 -0.485231,-4.36784 -0.55632,-37.177 -0.06375,-29.42304 -0.162981,-37.18068 -0.475766,-37.19463 -1.965587,-0.0876 -23.980324,0.13957 -27.672483,0.28561 l -4.757664,0.18817 -0.158589,37.25303 -0.158588,37.25303 -20.878122,0.0782 c -19.770715,0.0741 -20.872433,0.0499 -20.77084,-0.45616 z"
         id="path64"
         inkscape:connector-curvature="0" />
      <path
         style="fill:#fee876;stroke-width:0.31057322"
         d="m 24.006826,180.094 c -1.554336,-0.60134 1.435987,-0.71091 19.401184,-0.71091 10.888712,0 20.023426,-0.0831 20.299364,-0.18459 0.453634,-0.1669 0.502174,-3.71462 0.506564,-37.02495 0.0029,-22.65903 0.120505,-37.01596 0.30529,-37.29652 0.252987,-0.38412 1.867725,-0.48018 10.22412,-0.60821 l 9.923687,-0.15206 V 84.958061 65.79936 h 9.515327 9.515328 l 0.15859,6.082127 0.15859,6.082127 7.79366,0.176665 c 4.28651,0.09716 7.96181,0.276299 8.16732,0.398078 0.2778,0.164616 0.37721,3.863933 0.38749,14.420444 l 0.0138,14.199029 5.85368,5.32186 c 3.21952,2.92702 7.33886,6.69034 9.15408,8.36292 l 3.3004,3.04107 0.22272,27.52162 c 0.16271,20.10482 0.32044,27.58184 0.5853,27.74505 0.19942,0.12289 9.54487,0.22552 20.76767,0.22808 16.18138,0.004 20.37774,0.0833 20.27296,0.38479 -0.10356,0.29795 -4.61806,0.39584 -20.88086,0.45276 -11.41179,0.0399 -20.93633,-0.042 -21.16562,-0.18211 -0.33605,-0.20533 -0.47116,-5.64551 -0.69666,-28.05041 -0.15387,-15.28762 -0.2874,-27.80588 -0.29675,-27.81836 -0.49112,-0.65554 -29.38481,-26.770813 -29.69221,-26.837002 -0.57861,-0.124586 -0.58891,-2.501031 0.17771,41.000632 0.7706,43.7279 0.76274,41.66257 0.15858,41.66257 -0.26167,0 -0.4834,-0.0342 -0.49274,-0.076 -0.17791,-0.79664 -1.43506,-84.993806 -1.27154,-85.161204 0.12867,-0.131727 2.90835,2.194687 6.17706,5.169808 3.26871,2.975126 6.07667,5.455426 6.23991,5.511776 0.18214,0.0629 0.26484,-4.93003 0.21407,-12.924521 l -0.0827,-13.026983 -7.85052,-0.177759 c -4.31779,-0.09777 -7.9574,-0.281779 -8.08803,-0.408917 -0.13063,-0.127138 -0.2375,-2.852527 -0.2375,-6.056421 v -5.825264 l -8.448609,-0.08093 c -6.595926,-0.06318 -8.47709,0.0035 -8.57852,0.304107 -0.204929,0.607337 0.248943,36.401858 0.464189,36.608228 0.106083,0.10171 3.122353,0.16313 6.702821,0.13647 l 6.50994,-0.0485 0.176173,0.699 c 0.0969,0.38444 0.137033,17.326 0.0892,37.64791 -0.07674,32.60369 -0.142923,36.94893 -0.56274,36.94893 -0.419435,0 -0.494543,-4.39265 -0.634355,-37.10098 L 98.30566,105.02907 82.446782,105.1319 c -8.722383,0.0566 -16.108655,0.16841 -16.413939,0.24857 -0.524745,0.13779 -0.555061,2.16147 -0.555061,37.05246 0,33.14607 -0.05079,36.9554 -0.498422,37.38459 -0.443132,0.42487 -2.721288,0.47521 -20.537247,0.45387 -11.021353,-0.0132 -20.217238,-0.093 -20.435297,-0.1774 z"
         id="path62"
         inkscape:connector-curvature="0" />
      <path
         style="fill:#fee14b;stroke-width:0.31057322"
         d="m 23.927531,179.69167 c 0,-0.1987 7.007363,-0.33121 20.22007,-0.38236 l 20.22007,-0.0783 0.158589,-37.25304 0.158589,-37.25303 5.074841,-0.18689 c 2.791162,-0.10279 7.307568,-0.20543 10.036452,-0.22808 3.650676,-0.0303 4.998836,-0.14162 5.10249,-0.42132 0.07748,-0.20907 0.04066,-8.727851 -0.08184,-18.930619 -0.122494,-10.202769 -0.125603,-18.655232 -0.0069,-18.783251 0.118698,-0.128019 4.417012,-0.196443 9.551809,-0.152053 l 9.335999,0.08071 v 5.828596 c 0,3.205728 0.0992,5.923737 0.2204,6.040022 0.12122,0.116284 3.76083,0.298799 8.08803,0.405586 l 7.86762,0.194157 0.0824,14.188451 0.0824,14.188451 9.15989,8.39064 9.1599,8.39063 0.18605,6.46307 c 0.10234,3.55469 0.25179,15.93875 0.33212,27.52013 0.0803,11.58138 0.23493,21.19495 0.34356,21.36347 0.12938,0.20073 7.30218,0.30642 20.79534,0.30642 13.52043,0 20.59782,0.10449 20.59782,0.3041 0,0.36086 -42.06328,0.43427 -42.29562,0.0738 -0.0816,-0.12666 -0.25384,-12.658 -0.38267,-27.84743 -0.20947,-24.6987 -0.28794,-27.67509 -0.74251,-28.16555 -1.34196,-1.44788 -29.2371,-26.777777 -29.48966,-26.777777 -0.15933,0 -0.34862,0.17106 -0.42066,0.380133 -0.072,0.209073 0.18589,18.786174 0.57315,41.282434 0.40637,23.60575 0.58592,41.02027 0.42461,41.18124 -0.16737,0.16703 -0.34211,0.10603 -0.43556,-0.15205 -0.14709,-0.40625 -1.46209,-74.0326 -1.45428,-81.424646 0.002,-1.99269 0.12805,-3.40378 0.29857,-3.34517 0.16221,0.05575 2.87631,2.475812 6.03135,5.377906 3.79291,3.48884 5.89593,5.21786 6.20722,5.10333 0.40586,-0.14933 0.47012,-1.90466 0.46593,-12.72715 -0.003,-6.904662 -0.12784,-12.740043 -0.27816,-12.967515 -0.21255,-0.321635 -2.02723,-0.456853 -8.16247,-0.608213 l -7.88916,-0.194628 -0.0864,-5.916319 c -0.0623,-4.267016 -0.19492,-5.982439 -0.47576,-6.153498 -0.45944,-0.27984 -15.80158,-0.333402 -16.550712,-0.05778 -0.467837,0.172127 -0.494236,1.795563 -0.300415,18.474462 0.143478,12.346922 0.323806,18.420251 0.555235,18.699881 0.271882,0.32852 1.590956,0.39813 6.380144,0.33671 3.32057,-0.0426 6.215811,-0.0579 6.433871,-0.034 0.509901,0.0558 0.590394,75.1577 0.08055,75.1577 -0.207612,0 -0.343536,-12.74549 -0.396472,-37.17701 l -0.08055,-37.177 -7.136495,-0.0735 c -3.925073,-0.0404 -11.418393,0.028 -16.651822,0.15205 l -9.515327,0.22556 -0.158589,37.25303 -0.158589,37.25303 -20.537247,0.0782 c -13.53298,0.0516 -20.537248,-0.0255 -20.537248,-0.22582 z"
         id="path60"
         inkscape:connector-curvature="0" />
      <path
         style="fill:#fedd31;stroke-width:0.31057322"
         d="m 138.58137,179.67811 c -0.11455,-0.1777 -0.33206,-12.73573 -0.48336,-27.90672 -0.15129,-15.17098 -0.28152,-27.60696 -0.28941,-27.6355 -0.02,-0.0722 -26.43291,-24.251264 -28.49136,-26.081644 -1.18064,-1.049823 -1.77487,-1.394637 -2.01187,-1.167412 -0.23699,0.227225 -0.13203,12.258706 0.35534,40.734226 0.38041,22.22647 0.63753,40.8182 0.57138,41.31497 -0.28088,2.10925 -0.58866,-9.90107 -1.03674,-40.45525 -0.26245,-17.89666 -0.56209,-34.96843 -0.66585,-37.93727 -0.10377,-2.968836 -0.0695,-5.397886 0.0763,-5.397886 0.14571,0 2.89674,2.394838 6.1134,5.321866 3.21667,2.92702 6.03682,5.32186 6.26699,5.32186 0.34144,0 0.40329,-2.4501 0.33588,-13.304657 l -0.0826,-13.304653 -7.92944,-0.185669 c -4.36119,-0.102116 -8.03824,-0.204752 -8.17123,-0.22808 -0.13298,-0.02332 -0.20434,-2.745156 -0.15858,-6.048512 l 0.0832,-6.0061 -8.629211,-0.08089 c -7.985548,-0.07486 -8.648782,-0.04083 -8.89156,0.456159 -0.144287,0.295377 -0.173499,8.638941 -0.06491,18.541251 0.152496,13.906875 0.289355,18.110401 0.601368,18.470861 0.332872,0.38456 0.313949,0.49977 -0.107548,0.65485 -0.281318,0.10351 -0.741656,0.10351 -1.022974,0 -0.417161,-0.15348 -0.438355,-0.27267 -0.11492,-0.64633 0.310841,-0.35911 0.369988,-4.516377 0.273604,-19.231129 l -0.122963,-18.772985 9.270862,-0.08061 9.270852,-0.08061 0.0859,6.162737 0.0859,6.162738 7.92944,0.185669 c 4.36119,0.102116 8.03648,0.204752 8.16732,0.22808 0.13084,0.02332 0.23788,6.443642 0.23788,14.267375 v 14.224965 l 5.47132,4.98404 c 3.00922,2.74122 7.13003,6.53055 9.15737,8.42073 l 3.68605,3.43669 0.23316,27.45583 c 0.13897,16.36317 0.35388,27.59847 0.53195,27.80889 0.18795,0.22208 0.18354,0.42135 -0.0119,0.53714 -0.17086,0.10125 -0.40439,0.0387 -0.51893,-0.13902 z m -74.508135,-0.219 c 0.157882,-0.12544 0.393579,-0.36492 0.523771,-0.53218 0.135089,-0.17355 0.238803,-0.0756 0.241575,0.22808 0.0029,0.29583 -0.229919,0.53218 -0.523774,0.53218 -0.290744,0 -0.399453,-0.10263 -0.241572,-0.22808 z m 0.770202,-74.07524 c 0,-0.28174 0.246514,-0.50477 0.555061,-0.50219 0.316759,0.003 0.41889,0.1021 0.237883,0.23162 -0.174447,0.12483 -0.424225,0.35081 -0.555061,0.50219 -0.130835,0.15137 -0.237883,0.0472 -0.237883,-0.23162 z m 33.74978,-0.50484 c -0.159372,-0.15281 -1.431105,-0.32507 -2.826077,-0.38282 l -2.536311,-0.105 2.915173,-0.0612 c 1.603345,-0.0336 2.99729,0.0662 3.097654,0.2219 0.252978,0.39246 -0.294905,0.668 -0.650439,0.32712 z m -25.26528,-0.22858 c 1.613641,-0.0552 4.254144,-0.0552 5.867785,0 1.613641,0.0552 0.293389,0.10035 -2.933892,0.10035 -3.227282,0 -4.547534,-0.0452 -2.933893,-0.10035 z"
         id="path58"
         inkscape:connector-curvature="0" />
    </g>
    <text
       xml:space="preserve"
       style="font-style:normal;font-variant:normal;font-weight:normal;font-stretch:normal;font-size:8.97833729px;line-height:1.25;font-family:'Times New Roman';-inkscape-font-specification:'Times New Roman, ';letter-spacing:0px;word-spacing:0px;fill:#fede34;fill-opacity:1;stroke:none;stroke-width:0.22445843;"
       x="88.410179"
       y="179.5462"
       id="text74"
       transform="scale(0.94110171,1.0625844)"><tspan
         sodipodi:role="line"
         x="88.410179"
         y="179.5462"
         style="font-size:9.87777805px;fill:#fede34;fill-opacity:1;stroke-width:0.22445843;-inkscape-font-specification:Bahnschrift;font-family:Bahnschrift;font-weight:normal;font-style:normal;font-stretch:normal;font-variant:normal"
         id="tspan80">SERVIÇOS</tspan></text>
    <text
       xml:space="preserve"
       style="font-style:normal;font-variant:normal;font-weight:normal;font-stretch:normal;font-size:31.89304924px;line-height:1.25;font-family:'Times New Roman';-inkscape-font-specification:'Times New Roman, ';letter-spacing:0px;word-spacing:0px;fill:#fee460;fill-opacity:1;stroke:none;stroke-width:0.79732615"
       x="51.485054"
       y="221.05214"
       id="text94"
       transform="scale(1.0360984,0.96515929)"><tspan
         sodipodi:role="line"
         id="tspan92"
         x="51.485054"
         y="221.05214"
         style="font-style:normal;font-variant:normal;font-weight:normal;font-stretch:normal;font-size:28.22222137px;font-family:Bahnschrift;-inkscape-font-specification:Bahnschrift;fill:#fee460;fill-opacity:1;stroke-width:0.79732615">TORRES</tspan></text>
    <rect
       style="opacity:0.031;fill:#6c5d53;fill-opacity:0.03137255;stroke-width:0.26458332"
       id="rect102"
       width="0.53453904"
       height="16.036171"
       x="120.27129"
       y="0.33082446" />
  </g>
</svg>
